GIL04_fast2_ik
nRows=3
nColumns=375

# SIMM Motion File Header:
name GIL04_fast2_ik
datacolumns 375
datarows 3
otherdata 1
range 0.82500000 0.84167000
endheader
time	pelvis_tx	pelvis_ty	pelvis_tz	pelvis_tilt	pelvis_list	pelvis_rotation	hip_flexion_r	hip_adduction_r	hip_rotation_r	knee_angle_r	ankle_angle_r	hip_flexion_l	hip_adduction_l	hip_rotation_l	knee_angle_l	ankle_angle_l	lumbar_extension	lumbar_bending	lumbar_rotation	subtalar_angle_r	mtp_angle_r	subtalar_angle_l	mtp_angle_l	asis_r_px	asis_r_py	asis_r_pz	asis_l_px	asis_l_py	asis_l_pz	midasis_px	midasis_py	midasis_pz	psis_r_px	psis_r_py	psis_r_pz	psis_l_px	psis_l_py	psis_l_pz	hip_r_px	hip_r_py	hip_r_pz	hip_l_px	hip_l_py	hip_l_pz	midhip_px	midhip_py	midhip_pz	epicondLat_r_px	epicondLat_r_py	epicondLat_r_pz	epicondMed_r_px	epicondMed_r_py	epicondMed_r_pz	thighwand_r_px	thighwand_r_py	thighwand_r_pz	upperleg1_r_px	upperleg1_r_py	upperleg1_r_pz	upperleg2_r_px	upperleg2_r_py	upperleg2_r_pz	malleolusLat_r_px	malleolusLat_r_py	malleolusLat_r_pz	malleolusMedv_r_px	malleolusMedv_r_py	malleolusMedv_r_pz	shankwand_r_px	shankwand_r_py	shankwand_r_pz	lowerleg1_r_px	lowerleg1_r_py	lowerleg1_r_pz	knee_r_px	knee_r_py	knee_r_pz	ankle_r_px	ankle_r_py	ankle_r_pz	toe_r_px	toe_r_py	toe_r_pz	epicondLat_l_px	epicondLat_l_py	epicondLat_l_pz	epicondMed_l_px	epicondMed_l_py	epicondMed_l_pz	thighwand_l_px	thighwand_l_py	thighwand_l_pz	upperleg1_l_px	upperleg1_l_py	upperleg1_l_pz	upperleg2_l_px	upperleg2_l_py	upperleg2_l_pz	malleolusLat_l_px	malleolusLat_l_py	malleolusLat_l_pz	malleolusMedv_l_px	malleolusMedv_l_py	malleolusMedv_l_pz	shankwand_l_px	shankwand_l_py	shankwand_l_pz	lowerleg1_l_px	lowerleg1_l_py	lowerleg1_l_pz	knee_l_px	knee_l_py	knee_l_pz	ankle_l_px	ankle_l_py	ankle_l_pz	toe_l_px	toe_l_py	toe_l_pz	subclavicle_r_px	subclavicle_r_py	subclavicle_r_pz	subclavicle_l_px	subclavicle_l_py	subclavicle_l_pz	neck_px	neck_py	neck_pz	sternalnotch_px	sternalnotch_py	sternalnotch_pz	xyphoidprocess_px	xyphoidprocess_py	xyphoidprocess_pz	midhip_tx	midhip_ty	midhip_tz	hip_r_tx	hip_r_ty	hip_r_tz	hip_l_tx	hip_l_ty	hip_l_tz	knee_r_tx	knee_r_ty	knee_r_tz	knee_l_tx	knee_l_ty	knee_l_tz	ankle_r_tx	ankle_r_ty	ankle_r_tz	ankle_l_tx	ankle_l_ty	ankle_l_tz	midasis_tx	midasis_ty	midasis_tz	asis_r_tx	asis_r_ty	asis_r_tz	asis_l_tx	asis_l_ty	asis_l_tz	psis_r_tx	psis_r_ty	psis_r_tz	psis_l_tx	psis_l_ty	psis_l_tz	epicondLat_r_tx	epicondLat_r_ty	epicondLat_r_tz	epicondLat_l_tx	epicondLat_l_ty	epicondLat_l_tz	epicondMed_r_tx	epicondMed_r_ty	epicondMed_r_tz	epicondMed_l_tx	epicondMed_l_ty	epicondMed_l_tz	malleolusLat_r_tx	malleolusLat_r_ty	malleolusLat_r_tz	malleolusLat_l_tx	malleolusLat_l_ty	malleolusLat_l_tz	malleolusMedv_r_tx	malleolusMedv_r_ty	malleolusMedv_r_tz	malleolusMedv_l_tx	malleolusMedv_l_ty	malleolusMedv_l_tz	neck_tx	neck_ty	neck_tz	subclavicle_r_tx	subclavicle_r_ty	subclavicle_r_tz	subclavicle_l_tx	subclavicle_l_ty	subclavicle_l_tz	sternalnotch_tx	sternalnotch_ty	sternalnotch_tz	xyphoidprocess_tx	xyphoidprocess_ty	xyphoidprocess_tz	thighwand_r_tx	thighwand_r_ty	thighwand_r_tz	thighwand_l_tx	thighwand_l_ty	thighwand_l_tz	upperleg1_r_tx	upperleg1_r_ty	upperleg1_r_tz	upperleg1_l_tx	upperleg1_l_ty	upperleg1_l_tz	upperleg2_r_tx	upperleg2_r_ty	upperleg2_r_tz	upperleg2_l_tx	upperleg2_l_ty	upperleg2_l_tz	shankwand_r_tx	shankwand_r_ty	shankwand_r_tz	shankwand_l_tx	shankwand_l_ty	shankwand_l_tz	lowerleg1_r_tx	lowerleg1_r_ty	lowerleg1_r_tz	lowerleg1_l_tx	lowerleg1_l_ty	lowerleg1_l_tz	toe_r_tx	toe_r_ty	toe_r_tz	toe_l_tx	toe_l_ty	toe_l_tz	ground_force_vx	ground_force_vy	ground_force_vz	ground_force_px	ground_force_py	ground_force_pz	ground_force_vx	ground_force_vy	ground_force_vz	ground_force_px	ground_force_py	ground_force_pz	ground_torque_x	ground_torque_y	ground_torque_z	ground_torque_x	ground_torque_y	ground_torque_z	ground_marker_px	ground_marker_py	ground_marker_pz	ground_marker_px	ground_marker_py	ground_marker_pz	ground_marker_px	ground_marker_py	ground_marker_pz	ground_marker_px	ground_marker_py	ground_marker_pz	ground_marker_px	ground_marker_py	ground_marker_pz	ground_marker_px	ground_marker_py	ground_marker_pz	ground_marker_px	ground_marker_py	ground_marker_pz	ground_marker_px	ground_marker_py	ground_marker_pz	ground_marker_px	ground_marker_py	ground_marker_pz	ground_marker_px	ground_marker_py	ground_marker_pz	ground_marker_px	ground_marker_py	ground_marker_pz	ground_marker_px	ground_marker_py	ground_marker_pz	ground_marker_px	ground_marker_py	ground_marker_pz	ground_marker_px	ground_marker_py	ground_marker_pz	ground_marker_px	ground_marker_py	ground_marker_pz	ground_marker_px	ground_marker_py	ground_marker_pz	ground_marker_px	ground_marker_py	ground_marker_pz	ground_marker_px	ground_marker_py	ground_marker_pz	ground_marker_px	ground_marker_py	ground_marker_pz	ground_marker_px	ground_marker_py	ground_marker_pz	ground_marker_px	ground_marker_py	ground_marker_pz	ground_marker_px	ground_marker_py	ground_marker_pz	ground_marker_px	ground_marker_py	ground_marker_pz	ground_marker_px	ground_marker_py	ground_marker_pz	ground_marker_px	ground_marker_py	ground_marker_pz	ground_marker_px	ground_marker_py	ground_marker_pz	ground_marker_px	ground_marker_py	ground_marker_pz	ground_marker_px	ground_marker_py	ground_marker_pz	ground_marker_px	ground_marker_py	ground_marker_pz	ground_marker_px	ground_marker_py	ground_marker_pz	ground_marker_px	ground_marker_py	ground_marker_pz	ground_marker_px	ground_marker_py	ground_marker_pz	ground_marker_px	ground_marker_py	ground_marker_pz	ground_marker_px	ground_marker_py	ground_marker_pz	ground_marker_px	ground_marker_py	ground_marker_pz	ground_marker_px	ground_marker_py	ground_marker_pz	ground_marker_px	ground_marker_py	ground_marker_pz
      0.82500000	      2.15519537	      0.75106881	     -0.19646730	     -5.92605724	     -2.68801478	      2.32672427	     28.11587047	      0.61662557	      3.04796011	    -43.95469931	      0.89742831	      2.35093422	      2.45638303	     -5.95685284	     -3.71984695	      3.83867067	     -1.84685739	      3.34789865	     -0.40569888	      0.00000000	      0.00000000	      0.00000000	      0.00000000	      2.19676641	      0.74575686	     -0.10534521	      2.18947684	      0.73172386	     -0.29150689	      2.16534778	      0.74999544	     -0.19688164	      2.06260800	      0.81566024	     -0.17970235	      2.05883916	      0.80675873	     -0.23377988	      2.10170620	      0.71114410	     -0.13129024	      2.09619498	      0.70597437	     -0.25293470	      2.09895059	      0.70855923	     -0.19211247	      2.22761653	      0.39524859	     -0.07296393	      2.21275745	      0.39323071	     -0.17235093	      2.20310737	      0.49595807	      0.00004762	      2.21043490	      0.56021448	     -0.07210748	      2.24370742	      0.48308444	     -0.08494927	      2.10550419	      0.10151613	     -0.05723479	      2.10777222	      0.10514621	     -0.11719569	      2.12863469	      0.21036667	      0.00612560	      2.15428216	      0.25394927	     -0.05936338	      2.22856737	      0.40496336	     -0.12771383	      2.11093683	      0.10904535	     -0.10047186	      2.19326353	      0.04283897	     -0.08847459	      2.06479528	      0.36794302	     -0.26918977	      2.08449187	      0.36805249	     -0.16693911	      2.20677653	      0.45603390	     -0.28428788	      2.15680732	      0.52243853	     -0.22224216	      2.13690245	      0.43826452	     -0.20732625	      2.01818849	      0.05449740	     -0.23527942	      2.03193607	      0.06026197	     -0.17337127	      2.11766999	      0.14198022	     -0.26103720	      2.06926852	      0.20586957	     -0.23239705	      2.07316718	      0.38123688	     -0.22370551	      2.03347969	      0.06563159	     -0.19264523	      2.12090172	      0.02627243	     -0.23122630	      2.14701928	      1.12398356	     -0.13233757	      2.15192663	      1.13076079	     -0.24743497	      2.07068643	      1.14582106	     -0.19132186	      2.14807390	      1.11515180	     -0.19324765	      2.20791980	      0.98391075	     -0.19775767	      2.10384300	      0.69630900	     -0.18199500	      2.10139600	      0.70624000	     -0.11854700	      2.09411300	      0.70045700	     -0.24403200	      2.22495500	      0.40503500	     -0.11318600	      2.07583000	      0.38475800	     -0.21244300	      2.10805200	      0.11412300	     -0.11414000	      2.03195900	      0.06366500	     -0.20490800	      2.16749400	      0.76200300	     -0.18804000	      2.17287300	      0.76627400	     -0.09536100	      2.16211500	      0.75773200	     -0.28072000	      2.02605300	      0.81086300	     -0.16095000	      2.02026400	      0.80608700	     -0.21578000	      2.23057100	      0.40823000	     -0.06310100	      2.06761900	      0.38031800	     -0.26156400	      2.24301900	      0.40430500	     -0.15673300	      2.08378700	      0.38315500	     -0.16735600	      2.10035900	      0.11710800	     -0.08167200	      2.02321200	      0.06407700	     -0.23827900	      2.11684600	      0.11988500	     -0.14005900	      2.02749600	      0.07051000	     -0.17618700	      2.07219100	      1.15270900	     -0.19005400	      2.15711300	      1.11407900	     -0.13049000	      2.15106300	      1.11378200	     -0.25625800	      2.14971200	      1.10184000	     -0.19549000	      2.18025700	      0.96143000	     -0.19609900	      2.20610300	      0.49783000	      0.01732500	      2.20702900	      0.48123600	     -0.27580400	      2.21441100	      0.56631900	     -0.05310000	      2.14943700	      0.54306100	     -0.21592700	      2.25658700	      0.49391200	     -0.06473400	      2.13405600	      0.45697000	     -0.20330800	      2.12011600	      0.21693400	     -0.00956400	      2.12401600	      0.14980300	     -0.25333100	      2.16063700	      0.26063100	     -0.06594100	      2.07213800	      0.21415600	     -0.22871500	      2.18824900	      0.06486900	     -0.09516300	      2.12328100	      0.03704800	     -0.21478600	      0.00000000	      0.00000000	      0.00000000	      1.52971936	      0.00000000	     -0.13117813	     -7.41077708	    198.58551160	      2.76097954	      2.13379980	      0.00000000	     -0.21339786	      0.00000000	      0.00000000	      0.00000000	      0.00000000	     -0.88862061	      0.00000000	      2.10384274	      0.69630903	     -0.18199453	      2.10139632	      0.70623958	     -0.11854742	      2.09411335	      0.70045692	     -0.24403220	      2.22495461	      0.40503529	     -0.11318642	      2.07582974	      0.38475794	     -0.21244334	      2.10805154	      0.11412317	     -0.11414005	      2.03195882	      0.06366485	     -0.20490845	      2.16749382	      0.76200318	     -0.18804029	      2.17287254	      0.76627409	     -0.09536090	      2.16211486	      0.75773221	     -0.28071967	      2.02605319	      0.81086266	     -0.16094983	      2.02026391	      0.80608696	     -0.21577953	      2.23057055	      0.40823039	     -0.06310146	      2.06761932	      0.38031840	     -0.26156440	      2.24301887	      0.40430483	     -0.15673251	      2.08378744	      0.38315544	     -0.16735564	      2.10035872	      0.11710815	     -0.08167224	      2.02321172	      0.06407688	     -0.23827863	      2.11684585	      0.11988527	     -0.14005908	      2.02749610	      0.07050953	     -0.17618674	      2.07219124	      1.15270936	     -0.19005378	      2.15711331	      1.11407888	     -0.13048962	      2.15106344	      1.11378193	     -0.25625786	      2.14971209	      1.10184038	     -0.19548993	      2.18025732	      0.96143025	     -0.19609869	      2.20610261	      0.49783015	      0.01732526	      2.20702887	      0.48123568	     -0.27580449	      2.21441102	      0.56631929	     -0.05310008	      2.14943695	      0.54306120	     -0.21592738	      2.25658727	      0.49391222	     -0.06473351	      2.13405633	      0.45697001	     -0.20330840	      2.12011576	      0.21693446	     -0.00956350	      2.12401628	      0.14980316	     -0.25333145	      2.16063666	      0.26063117	     -0.06594144	      2.07213783	      0.21415637	     -0.22871466	      2.18824935	      0.06486881	     -0.09516346	      2.12328148	      0.03704823	     -0.21478648
      0.83333000	      2.16497252	      0.75022708	     -0.19660622	     -5.90389707	     -2.83495468	      2.57641419	     28.87233415	      0.72778631	      3.41184482	    -41.30997067	      1.46144036	      1.03277970	      2.36626345	     -5.90479951	     -2.80144443	      3.95432326	     -1.94354907	      3.54859307	     -0.76228851	      0.00000000	      0.00000000	      0.00000000	      0.00000000	      2.20696268	      0.74511390	     -0.10566512	      2.19882055	      0.73068822	     -0.29176144	      2.17512311	      0.74915458	     -0.19706495	      2.07245141	      0.81483769	     -0.17955190	      2.06843581	      0.80582184	     -0.23359271	      2.11179057	      0.71043030	     -0.13110034	      2.10572154	      0.70500385	     -0.25270707	      2.10875606	      0.70771708	     -0.19190371	      2.24253115	      0.39634747	     -0.07361800	      2.22653215	      0.39391610	     -0.17281861	      2.21755696	      0.49688581	     -0.00052821	      2.22318778	      0.56107451	     -0.07289562	      2.25732077	      0.48436090	     -0.08597136	      2.13835164	      0.09593893	     -0.05708968	      2.13954165	      0.09983174	     -0.11706518	      2.15593071	      0.20582125	      0.00627318	      2.17802237	      0.25098862	     -0.05943762	      2.24228740	      0.40627589	     -0.12836658	      2.14271038	      0.10387305	     -0.10037592	      2.22954912	      0.04346527	     -0.08965966	      2.06659232	      0.36774855	     -0.26829967	      2.08655118	      0.36757963	     -0.16609997	      2.21050265	      0.45255837	     -0.28391187	      2.16221911	      0.52018675	     -0.22185327	      2.14044180	      0.43651274	     -0.20674163	      2.01799319	      0.05465041	     -0.23446024	      2.03201614	      0.06027089	     -0.17260063	      2.11798417	      0.14145697	     -0.26053135	      2.07013916	      0.20566022	     -0.23165912	      2.07529483	      0.38098927	     -0.22285111	      2.03352385	      0.06564456	     -0.19187630	      2.12057840	      0.02589200	     -0.23088262	      2.15717512	      1.12300235	     -0.13205504	      2.16233878	      1.12981959	     -0.24713886	      2.08100544	      1.14499574	     -0.19119214	      2.15834408	      1.11419442	     -0.19296648	      2.21797407	      0.98285270	     -0.19740503	      2.11369000	      0.69568800	     -0.18184000	      2.11146700	      0.70572800	     -0.11842100	      2.10359000	      0.69979700	     -0.24386300	      2.23922300	      0.40577800	     -0.11420100	      2.07816800	      0.38477300	     -0.21193700	      2.13946700	      0.10780800	     -0.11394600	      2.03216200	      0.06413900	     -0.20396900	      2.17722500	      0.76142000	     -0.18829200	      2.18304200	      0.76580000	     -0.09565700	      2.17140800	      0.75704000	     -0.28092700	      2.03595900	      0.81022800	     -0.16051200	      2.02976200	      0.80553300	     -0.21532300	      2.24538500	      0.40910700	     -0.06418900	      2.06973100	      0.38047800	     -0.26103200	      2.25904000	      0.40620500	     -0.15794500	      2.08522800	      0.38349400	     -0.16685800	      2.13195900	      0.11034900	     -0.08139700	      2.02326300	      0.06458800	     -0.23729900	      2.14797400	      0.11369700	     -0.13978500	      2.02750700	      0.07104300	     -0.17513600	      2.08250800	      1.15221100	     -0.18982600	      2.16717100	      1.11334500	     -0.13033800	      2.16208100	      1.11320600	     -0.25569700	      2.15990000	      1.10113700	     -0.19533200	      2.19072600	      0.96076300	     -0.19573400	      2.22053400	      0.49882000	      0.01641000	      2.21129200	      0.47857700	     -0.27571800	      2.22786700	      0.56767400	     -0.05415600	      2.15554200	      0.54114400	     -0.21550000	      2.27121000	      0.49590700	     -0.06586700	      2.13766800	      0.45597300	     -0.20294400	      2.14653800	      0.21120100	     -0.00939900	      2.12449500	      0.14974000	     -0.25282200	      2.18388800	      0.25699600	     -0.06614000	      2.07293000	      0.21434300	     -0.22784600	      2.22312500	      0.06417600	     -0.09553300	      2.12323100	      0.03709100	     -0.21449800	      0.00000000	      0.00000000	      0.00000000	      1.52992773	      0.00000000	     -0.13094717	     -5.32016913	    199.83385133	      1.98354214	      2.13435449	      0.00000000	     -0.21249130	      0.00000000	      0.00000000	      0.00000000	      0.00000000	     -0.99258649	      0.00000000	      2.11369038	      0.69568831	     -0.18184011	      2.11146736	      0.70572758	     -0.11842082	      2.10358977	      0.69979680	     -0.24386276	      2.23922300	      0.40577847	     -0.11420084	      2.07816768	      0.38477311	     -0.21193662	      2.13946700	      0.10780773	     -0.11394575	      2.03216171	      0.06413947	     -0.20396887	      2.17722511	      0.76142007	     -0.18829183	      2.18304229	      0.76579982	     -0.09565661	      2.17140770	      0.75704032	     -0.28092706	      2.03595853	      0.81022847	     -0.16051206	      2.02976155	      0.80553263	     -0.21532269	      2.24538541	      0.40910685	     -0.06418889	      2.06973052	      0.38047838	     -0.26103213	      2.25903964	      0.40620479	     -0.15794457	      2.08522797	      0.38349354	     -0.16685838	      2.13195944	      0.11034899	     -0.08139687	      2.02326322	      0.06458802	     -0.23729853	      2.14797354	      0.11369662	     -0.13978450	      2.02750659	      0.07104275	     -0.17513603	      2.08250833	      1.15221119	     -0.18982598	      2.16717052	      1.11334455	     -0.13033842	      2.16208100	      1.11320591	     -0.25569692	      2.15989971	      1.10113704	     -0.19533229	      2.19072628	      0.96076316	     -0.19573410	      2.22053385	      0.49881998	      0.01641021	      2.21129227	      0.47857654	     -0.27571771	      2.22786713	      0.56767368	     -0.05415625	      2.15554190	      0.54114366	     -0.21549994	      2.27121019	      0.49590695	     -0.06586707	      2.13766789	      0.45597294	     -0.20294368	      2.14653754	      0.21120113	     -0.00939913	      2.12449455	      0.14973983	     -0.25282234	      2.18388844	      0.25699556	     -0.06613980	      2.07293034	      0.21434262	     -0.22784567	      2.22312450	      0.06417641	     -0.09553284	      2.12323117	      0.03709145	     -0.21449782
      0.84167000	      2.17486905	      0.74907669	     -0.19654259	     -5.87438780	     -2.96964673	      2.84393597	     29.56672622	      0.78816075	      3.48201433	    -38.58600999	      1.96267549	     -0.27823406	      2.28470738	     -5.82638406	     -1.93672927	      4.11380186	     -2.01408201	      3.68663433	     -1.05145241	      0.00000000	      0.00000000	      0.00000000	      0.00000000	      2.21730390	      0.74414424	     -0.10579813	      2.20825791	      0.72937010	     -0.29182535	      2.18501759	      0.74800612	     -0.19704885	      2.08241396	      0.81369356	     -0.17915713	      2.07813728	      0.80457608	     -0.23316084	      2.12201864	      0.70938729	     -0.13070408	      2.11535785	      0.70373292	     -0.25226945	      2.11868824	      0.70656011	     -0.19148676	      2.25700726	      0.39697989	     -0.07391475	      2.24034876	      0.39427406	     -0.17299963	      2.23130886	      0.49726128	     -0.00072308	      2.23564604	      0.56145735	     -0.07317301	      2.27062750	      0.48515864	     -0.08643269	      2.17120540	      0.09089412	     -0.05788753	      2.17157399	      0.09510946	     -0.11785190	      2.18284747	      0.20135269	      0.00584132	      2.20157209	      0.24803634	     -0.05985547	      2.25582154	      0.40716478	     -0.12863385	      2.17466057	      0.09925994	     -0.10117404	      2.26550514	      0.04486709	     -0.09150001	      2.06861778	      0.36741637	     -0.26716594	      2.08880915	      0.36697659	     -0.16501273	      2.21436160	      0.44894064	     -0.28326447	      2.16775778	      0.51774588	     -0.22121536	      2.14414012	      0.43460928	     -0.20590307	      2.01781650	      0.05471382	     -0.23335711	      2.03209688	      0.06018880	     -0.17154336	      2.11837581	      0.14077111	     -0.25972460	      2.07112282	      0.20531962	     -0.23064791	      2.07764698	      0.38059874	     -0.22175387	      2.03357855	      0.06556276	     -0.19082097	      2.12027042	      0.02542703	     -0.23024044	      2.16736334	      1.12178399	     -0.13183432	      2.17259308	      1.12856712	     -0.24691717	      2.09124826	      1.14384760	     -0.19101556	      2.16855344	      1.11295975	     -0.19274299	      2.22803938	      0.98155063	     -0.19711893	      2.12359800	      0.69480500	     -0.18173100	      2.12161300	      0.70490800	     -0.11831100	      2.11311600	      0.69890700	     -0.24371000	      2.25321100	      0.40617800	     -0.11534200	      2.08067200	      0.38474100	     -0.21146400	      2.17127500	      0.10184900	     -0.11367100	      2.03233800	      0.06459500	     -0.20306000	      2.18701200	      0.76057700	     -0.18853800	      2.19328600	      0.76500900	     -0.09593800	      2.18073700	      0.75614500	     -0.28113800	      2.04594400	      0.80931100	     -0.16003900	      2.03933500	      0.80470900	     -0.21479400	      2.25967700	      0.40952400	     -0.06537000	      2.07202600	      0.38059700	     -0.26053600	      2.27275800	      0.40704100	     -0.15927400	      2.08790000	      0.38327500	     -0.16618300	      2.16392300	      0.10400700	     -0.08105900	      2.02331400	      0.06508400	     -0.23635500	      2.17942700	      0.10790700	     -0.13946800	      2.02773800	      0.07145800	     -0.17415400	      2.09278400	      1.15140100	     -0.18962900	      2.17725200	      1.11238500	     -0.13012500	      2.17271000	      1.11235200	     -0.25532000	      2.17013100	      1.10019600	     -0.19512500	      2.20099600	      0.95984200	     -0.19545100	      2.23412500	      0.49914700	      0.01535800	      2.21565100	      0.47591500	     -0.27562600	      2.24021500	      0.56820900	     -0.05537300	      2.16088600	      0.53930200	     -0.21518600	      2.28438800	      0.49689100	     -0.06730700	      2.14162300	      0.45499300	     -0.20252700	      2.17303700	      0.20568900	     -0.00924700	      2.12500800	      0.14960000	     -0.25227200	      2.20695500	      0.25335000	     -0.06640600	      2.07384500	      0.21462200	     -0.22706700	      2.25797500	      0.06409200	     -0.09594100	      2.12314200	      0.03713500	     -0.21420900	      0.00000000	      0.00000000	      0.00000000	      1.53011743	      0.00000000	     -0.13075325	     -3.33849689	    202.42998380	      1.33936379	      2.13482935	      0.00000000	     -0.21167130	      0.00000000	      0.00000000	      0.00000000	      0.00000000	     -1.07797595	      0.00000000	      2.12359810	      0.69480461	     -0.18173142	      2.12161303	      0.70490837	     -0.11831140	      2.11311579	      0.69890660	     -0.24370952	      2.25321078	      0.40617841	     -0.11534241	      2.08067203	      0.38474116	     -0.21146385	      2.17127490	      0.10184879	     -0.11367089	      2.03233814	      0.06459546	     -0.20305994	      2.18701172	      0.76057673	     -0.18853788	      2.19328642	      0.76500869	     -0.09593818	      2.18073702	      0.75614470	     -0.28113759	      2.04594374	      0.80931056	     -0.16003941	      2.03933454	      0.80470949	     -0.21479420	      2.25967717	      0.40952384	     -0.06537002	      2.07202554	      0.38059735	     -0.26053590	      2.27275753	      0.40704089	     -0.15927391	      2.08789968	      0.38327530	     -0.16618319	      2.16392255	      0.10400739	     -0.08105901	      2.02331376	      0.06508394	     -0.23635510	      2.17942715	      0.10790712	     -0.13946788	      2.02773833	      0.07145766	     -0.17415434	      2.09278440	      1.15140128	     -0.18962882	      2.17725158	      1.11238527	     -0.13012522	      2.17271018	      1.11235178	     -0.25531983	      2.17013121	      1.10019565	     -0.19512486	      2.20099592	      0.95984203	     -0.19545063	      2.23412514	      0.49914718	      0.01535811	      2.21565127	      0.47591451	     -0.27562588	      2.24021459	      0.56820893	     -0.05537297	      2.16088557	      0.53930157	     -0.21518576	      2.28438807	      0.49689054	     -0.06730704	      2.14162350	      0.45499322	     -0.20252678	      2.17303658	      0.20568933	     -0.00924714	      2.12500787	      0.14959952	     -0.25227159	      2.20695519	      0.25335038	     -0.06640599	      2.07384491	      0.21462232	     -0.22706711	      2.25797534	      0.06409161	     -0.09594070	      2.12314177	      0.03713522	     -0.21420887
